<?xml version="1.0" encoding="utf-8"?>
<!-- Generator: Adobe Illustrator 21.0.0, SVG Export Plug-In . SVG Version: 6.00 Build 0)  -->
<svg version="1.1" id="Layer_1" xmlns="http://www.w3.org/2000/svg" xmlns:xlink="http://www.w3.org/1999/xlink" x="0px" y="0px"
	 viewBox="0 0 301 301" style="enable-background:new 0 0 301 301;" xml:space="preserve">
<style type="text/css">
	.st0{fill:none;stroke:#4E5A62;stroke-width:4;stroke-miterlimit:10;}
	.st1{fill:#4E5A62;}
	.st2{opacity:0.2;}
	.st3{opacity:0.15;}
	.st4{fill:#4E5A62;stroke:#4E5A62;stroke-width:4;stroke-linecap:round;stroke-linejoin:round;stroke-miterlimit:10;}
	.st5{clip-path:url(#SVGID_2_);}
	.st6{clip-path:url(#SVGID_4_);}
	.st7{opacity:0.2;clip-path:url(#SVGID_6_);}
	.st8{clip-path:url(#SVGID_8_);}
	.st9{clip-path:url(#SVGID_6_);fill:none;stroke:#000000;stroke-width:4;stroke-miterlimit:10;}
	.st10{fill:#DCEFFB;}
</style>
<path class="st0" d="M225.5,103.1L147.4,58c-0.9-0.5-2.1-0.5-3,0l-78.1,45.1c-0.9,0.5-1.5,1.5-1.5,2.6l0,90.2c0,1.1,0.6,2.1,1.5,2.6
	l78.1,45.1c0.9,0.5,2.1,0.5,3,0l78.1-45.1c0.9-0.5,1.5-1.5,1.5-2.6l0-90.2C227,104.6,226.5,103.7,225.5,103.1z"/>
<g>
	<path class="st1" d="M247.7,142.5c0.2,0.1,0.4,0.2,0.7,0.3v-0.1l-0.6-0.3L247.7,142.5z"/>
	<path class="st1" d="M247.3,142.3v0.4l0.4-0.2c-0.1-0.1-0.2-0.1-0.3-0.2C247.4,142.3,247.3,142.3,247.3,142.3z"/>
	<path class="st1" d="M282.5,123.5c-0.3-2.3-1.2-4.5-2.9-5.8c-0.9-0.7-2.8-1.1-3.7-0.2c-1.5,1.4,0.7,3.9,1.1,5.4
		c1.2,4.7-1.9,8.7-5.7,11c-5.8,3.5-12.7,4.5-19.4,4.3c-4.6-0.1-9.2-0.8-13.7-1.6c-4.3-0.7-8.5-1.9-12.9-2.3c-3.7-0.4-7.4-1-11.2-1.3
		c-10.4-1-24-1.8-32.7,5.1c-3.3,2.6-6.3,5.7-9.1,8.9c-2.7,3-5.9,6.1-8,9.5c-0.3-4-0.2-9.4,1.1-13.2l0-0.2c0-1.2-0.7-1.9-2-2.1H163
		c-1.1,0-2.2,1.1-3.5,3.4c-1.3,2.4-2.8,4.9-4.9,6.8c-0.8,0.7-2,1.6-3,1c-2.1-1.2-1.2-4.4-0.8-6.2c0.6-2.7,2-5.2,2.7-7.9
		c0.3-1.3,0.4-4.1-1.7-3.8c-0.8,0.1-1.7,0.8-2.2,1.7c0,0.1-0.1,0.1-0.1,0.2c-4.8,0.9-9.5,2.4-14,4.4c-1,0.5-2.2,1.3-2.2,1.3
		s-1.4,1.4-2.1,0.7c-0.7-0.9-1.8-2.2-2.6-3.1c2.9-3.8,4.3-7.1,4.3-9.7c0-4-3.1-6.3-6.9-6.7c-0.1,0-0.1,0-0.2,0
		c-2.5-0.2-4.5,1.4-5.7,3.6c-0.7,1.2-1.2,2.6-1.4,4c-0.2,1.5,0,2.9,0.3,4.3c0.1,0.4,0.4,1.1,0.4,1.1c-10.6,0.9-20.4,5.1-30.4,8.4
		c-12.1,4-24.4,10.7-37.6,9.8c-3-0.2-6.2-1.1-8.3-3.3c-1.8-1.8-2.7-4.8-1.5-7c1.5-2.9,4.7-3.5,7.5-4.4c0.8-0.2,1.5-0.9,1.4-1.7
		c0-0.3-0.2-0.5-0.4-0.7c-0.8-1-2-1.5-3.3-1.6c-2.7-0.2-5.5,1.5-7.4,3.4c-1.9,1.8-3.8,4.6-3.6,7.4c0.2,2.5,1.8,5.5,3.6,7.2
		c2,1.8,4.3,3.1,6.9,4c10.6,3.5,22.3-0.9,32.3-4.3c3.6-1.2,7.2-2.5,10.8-3.8c7.5-2.7,15-5.3,22.9-7.1c3.5-0.8,7-1.6,10.6-1.4
		c0.3,0,0.5,0,0.8,0.1c0.2,0.1,0.4,0.3,0.6,0.5c0.6,0.6,3,2.5,3,3.5v0.1c0,0.2-0.2,0.5-0.6,0.8c-7.4,6.4-11,12-11,16.8
		c0,2.4,1.8,4.6,3.8,5.5c3.1,1.5,7,0.3,9.8-1.2c2.8-1.4,5.5-3.6,7-6.4c1.7-3.2,1.2-6.8-0.6-9.9c-1-1.6-2.8-2.8-0.9-4.5
		c1.8-1.7,4.9-2.7,7.2-3.5c1.9-0.7,3.9-1.2,5.9-1.6c-0.7,2.3-1.4,4.7-1.6,7.2c-0.3,3.3,1,8.2,5.2,8.2c1.5,0,3-0.4,4.4-1.3
		c1.3-0.8,2.8-2.4,3.8-3.6c0.2,3.3,0,6.7,0.2,10l-0.3,1.6c-4.1,6.4-7.9,12.9-11.3,19.7c-2.8,6.1-5.7,12.3-6.8,19
		c-0.6,3.6-1.2,8.5,1.1,11.7c4.4,6.2,13.6-0.7,16.1-5.3c1.7-3.1,3.3-7.3,4.7-12.5c1.5-9,2.2-15.5,2.2-19.5
		c-0.5-5.6-0.7-9.6-0.7-11.9c0-1.3,1.1-2.7,1.8-3.7c1.5-2.2,3.3-4.2,4.9-6.3c2.2-2.8,4.7-5.4,7.2-8c2.4-2.3,4.8-4.9,7.8-6.2
		c13.4-5.7,29.8-2.6,43.6-0.1c3.9,0.7,7.9,1.2,11.9,1.7c5.3,0.6,10.6,0.8,15.8,0.7c5.6,0,11.8-2,16.5-4.9c3.2-2,6.4-4.9,7.7-8.6
		C282.6,127.4,282.8,125.4,282.5,123.5z M123.1,130.8c0.1-0.8,0.5-1.7,0.9-2.4c0.3-0.5,0.8-0.9,1.4-1c0.1,0,0.2,0,0.2,0
		c1.7,0.3,2.5,0.9,2.5,1.9c0,1.6-1,3.8-2.9,6.5c-0.9-1.2-1.9-2.5-2.1-4C123.1,131.6,123.1,131.2,123.1,130.8z M130.2,160.3
		c-2.9,3-5.7,4.4-8.3,4.4c-0.9,0-1.4-0.5-1.6-1.5v-1c0-1.9,0.6-3.7,1.9-5.3c3.1-4.2,5.8-6.9,7.9-7.9c0.7,0,1.3,1.6,1.8,4.8
		C131.8,156.5,131.3,158.7,130.2,160.3z M160.8,175.5c-0.6,10.4-1,21.7-6.3,31c-0.9,1.5-1.9,3.1-3.4,4.1c-1.1,0.7-3.4,1.8-4.6,0.7
		c-1-0.9-1-3.1-1.1-4.4c0-3.7,0.9-8,2.6-12.8c2.8-7.4,6.3-14.6,10.6-21.5c1.1-2.1,1.7-3.1,1.8-3.1
		C161.2,169.5,160.8,175.1,160.8,175.5z M203.1,132.7L203.1,132.7C203.1,132.7,203.1,132.7,203.1,132.7L203.1,132.7z"/>
	<polygon class="st1" points="257.4,137.3 256.7,137.6 257.4,137.5 	"/>
</g>
<g class="st3">
	<line class="st4" x1="145.8" y1="194.9" x2="145.8" y2="223.9"/>
	<line class="st4" x1="145.8" y1="106.8" x2="145.8" y2="150"/>
	<line class="st4" x1="145.8" y1="150" x2="145.8" y2="150.5"/>
	<line class="st4" x1="145.8" y1="75.1" x2="145.8" y2="106.8"/>
	<line class="st4" x1="145.8" y1="194.9" x2="145.8" y2="150.5"/>
	<line class="st4" x1="209.9" y1="187.7" x2="182.9" y2="172"/>
	<line class="st4" x1="145.4" y1="150.2" x2="145.8" y2="150.5"/>
	<line class="st4" x1="81.4" y1="113.2" x2="106.8" y2="127.9"/>
	<line class="st4" x1="145.8" y1="150.5" x2="182.9" y2="172"/>
	<line class="st4" x1="182" y1="129" x2="145.8" y2="150"/>
	<line class="st4" x1="182" y1="129" x2="209.8" y2="112.8"/>
	<line class="st4" x1="106.5" y1="172.8" x2="80.4" y2="187.9"/>
	<line class="st4" x1="145.4" y1="150.2" x2="106.5" y2="172.8"/>
	<line class="st4" x1="145.4" y1="150.2" x2="145.8" y2="150"/>
	<line class="st4" x1="182" y1="129" x2="182" y2="101.7"/>
	<polyline class="st4" points="182,129 182,129 207,143.7 	"/>
	<line class="st4" x1="169.6" y1="91.7" x2="145.8" y2="105.3"/>
	<line class="st4" x1="121" y1="91.7" x2="145.8" y2="105.3"/>
	<polyline class="st4" points="106.8,127.9 106.8,128.1 83.2,142 	"/>
	<line class="st4" x1="106.8" y1="127.9" x2="107.5" y2="100.9"/>
	<line class="st4" x1="83.2" y1="158.5" x2="106.5" y2="172.8"/>
	<polyline class="st4" points="106.5,200.7 106.5,172.8 106.5,172.8 	"/>
	<line class="st4" x1="145.8" y1="194.9" x2="169.4" y2="208.8"/>
	<line class="st4" x1="145.8" y1="194.9" x2="120.7" y2="208.8"/>
	<line class="st4" x1="207.2" y1="158.5" x2="182.9" y2="172"/>
	<polyline class="st4" points="182,200.5 182.9,172 182.9,172 	"/>
</g>
</svg>
